<?xml version="1.0" encoding="utf-8"?>
<!-- Generator: Adobe Illustrator 21.0.0, SVG Export Plug-In . SVG Version: 6.00 Build 0)  -->
<svg version="1.1" id="Layer_1" xmlns="http://www.w3.org/2000/svg" xmlns:xlink="http://www.w3.org/1999/xlink" x="0px" y="0px"
	 viewBox="0 0 500 500" style="enable-background:new 0 0 500 500;" xml:space="preserve">
<style type="text/css">
	.st0{fill:#0086FA;}
</style>
<g>
	<g>
		<path class="st0" d="M266.9,226.1c0,2.2,0.1,4.4,0.3,6.6v-14.5C266.9,220.9,266.8,223.5,266.9,226.1z"/>
		<path class="st0" d="M420.9,304.2c-21.9,21.6-50.1,31.6-80.8,31.6c-41.4,0-70.2-14.9-88.4-37c-16,24.4-43.5,36.7-76.6,36.7
			c-51,0-94.5-31-94.5-95.1V118.6h39.8v121.8c0,38.3,21.9,58.6,55,58.6c33.1,0,52-22.2,52-58.6V118.6h39.8v18.9
			c18-14.4,42.2-23.4,72.9-23.4c28.9,0,56.2,10.9,78.1,32.5l-26.7,25.8c-14-13.7-32.8-20-51.3-20c-47.6,0-70.1,32.9-72.9,66
			c-0.2,2.6-0.3,5.2-0.3,7.8c0,2.2,0.1,4.4,0.3,6.6c2.7,33.1,23.6,65.4,72.9,65.4c18.5,0,39.5-7.6,53.5-21.6L420.9,304.2z"/>
	</g>
	<g>
		<path d="M107.3,353.2v18.4c0,9.5-5.8,14.3-13.9,14.3c-7.7,0-14.3-4.7-14.3-14.3v-18.4h6v18.4c0,5.8,3.3,8.8,8.3,8.8
			c5,0,7.8-3.3,7.8-8.8v-18.4H107.3z"/>
		<path d="M144.7,369.4c-0.1,8.3-5.2,16.6-16.5,16.6s-16.5-8.1-16.5-16.5c0-8.4,5.4-16.9,16.5-16.9
			C139.3,352.5,144.8,361,144.7,369.4z M117.7,369.5c0.1,5.3,3,10.9,10.5,10.9c7.6,0,10.4-5.7,10.5-11c0.1-5.4-2.9-11.5-10.5-11.5
			C120.7,358,117.6,364.1,117.7,369.5z"/>
		<path d="M149.2,385.2v-32.1h6v32.1H149.2z"/>
		<path d="M170.7,358.6h-10.2v-5.5c9.3,0,17.1,0,26.4,0v5.5h-10.2v26.6h-6.1V358.6z"/>
		<path d="M228.1,381.2c-3.3,3.3-7.6,4.8-12.2,4.8c-11.9,0-17-8.2-17-16.5c0-8.4,5.4-16.9,17-16.9c4.4,0,8.5,1.6,11.8,4.9l-4,3.9
			c-2.1-2.1-5-3-7.7-3c-7.7,0-11.1,5.8-11,11.1c0,5.3,3.1,10.9,11,10.9c2.8,0,6-1.1,8.1-3.3L228.1,381.2z"/>
		<path d="M263,369.4c-0.1,8.3-5.2,16.6-16.5,16.6s-16.5-8.1-16.5-16.5c0-8.4,5.4-16.9,16.5-16.9C257.6,352.5,263.1,361,263,369.4z
			 M236,369.5c0.1,5.3,3,10.9,10.5,10.9c7.6,0,10.4-5.7,10.5-11c0.1-5.4-2.9-11.5-10.5-11.5C239,358,235.9,364.1,236,369.5z"/>
		<path d="M288.6,353.1h6.1v32.1h-3.8v0L274,363.6v21.6h-6.1v-32.1h4.9l15.7,19.9V353.1z"/>
		<path d="M321.3,353.1h6.1v32.1h-3.8v0l-16.9-21.7v21.6h-6.1v-32.1h4.9l15.7,19.9V353.1z"/>
		<path d="M356.8,385.2h-24c0-10.7,0-21.4,0-32.1h24v5.9h-18v7.4h17.4v5.6h-17.4v7.2h18V385.2z"/>
		<path d="M389.7,381.2c-3.3,3.3-7.6,4.8-12.2,4.8c-11.9,0-17-8.2-17-16.5c0-8.4,5.4-16.9,17-16.9c4.4,0,8.5,1.6,11.8,4.9l-4,3.9
			c-2.1-2.1-5-3-7.7-3c-7.7,0-11.1,5.8-11,11.1c0,5.3,3.1,10.9,11,10.9c2.8,0,6-1.1,8.1-3.3L389.7,381.2z"/>
		<path d="M401,358.6h-10.2v-5.5c9.3,0,17.1,0,26.4,0v5.5H407v26.6h-6V358.6z"/>
	</g>
</g>
</svg>
